<svg xmlns="http://www.w3.org/2000/svg" xmlns:xlink="http://www.w3.org/1999/xlink" version="1.1" width="1000" height="1000" viewBox="0 0 1000 1000" xml:space="preserve">
<desc>Created with Fabric.js 3.5.0</desc>
<defs>
</defs>
<rect x="0" y="0" width="100%" height="100%" fill="#ffffff"/>
<g transform="matrix(0.0777 0 0 0.0777 79.9552 240.0372)" id="597476">
<g style="" vector-effect="non-scaling-stroke">
		<g transform="matrix(0.2185 0 0 -0.2637 7.3767 -114.9285)">
<path style="stroke: none; stroke-width: 1; stroke-dasharray: none; stroke-linecap: butt; stroke-dashoffset: 0; stroke-linejoin: miter; stroke-miterlimit: 4; is-custom-font: none; font-file-url: none; fill: rgb(0,0,0); fill-rule: nonzero; opacity: 1;" transform=" translate(-3459.199, -4410.5)" d="M 2539 4933 c -11 -12 -14 -54 -14 -167 c 1 -168 9 -200 65 -233 l 30 -17 l 0 -313 l 0 -313 l -147 -1 c -90 0 -140 -4 -128 -9 c 29 -12 2222 -12 2230 0 c 4 6 -67 11 -192 12 l -198 3 l -3 291 l -2 291 l 45 41 c 84 77 106 175 64 289 c -25 65 -94 143 -127 143 c -62 0 -113 -42 -153 -124 c -59 -124 -46 -221 42 -300 c 30 -27 51 -54 51 -68 c 1 -13 1 -146 0 -295 l -2 -273 l -100 0 c -85 0 -102 3 -107 17 c -6 15 -7 15 -14 -3 c -4 -10 -7 19 -6 66 c 2 78 -1 91 -31 152 c -51 104 -170 223 -203 202 c -7 -4 -9 -3 -6 3 c 4 6 -5 15 -19 22 c -31 14 -37 14 -28 0 c 4 -8 -1 -9 -17 -4 c -42 13 -57 26 -24 20 c 28 -5 28 -4 -5 8 c -19 8 -61 17 -93 21 c -47 5 -59 3 -63 -9 c -5 -12 -10 -13 -20 -4 c -8 6 -26 8 -45 4 c -24 -6 -28 -9 -18 -17 c 10 -7 8 -8 -9 -5 c -12 3 -20 2 -17 -3 c 3 -4 -10 -8 -28 -7 c -34 1 -122 -47 -112 -62 c 2 -5 -2 -14 -10 -21 c -13 -11 -14 -10 -9 6 c 7 19 7 19 -14 0 c -24 -21 -29 -32 -10 -20 c 7 5 8 3 4 -5 c -5 -7 -11 -10 -14 -7 c -7 8 -42 -24 -42 -38 c 0 -6 5 -4 11 4 c 7 10 9 11 7 2 c -2 -8 -8 -13 -13 -13 c -17 0 -46 -32 -41 -45 c 3 -7 -6 -43 -19 -81 c -14 -37 -25 -84 -25 -103 c -1 -83 2 -81 -134 -78 l -121 3 l -3 306 l -2 306 l 35 24 c 55 38 65 77 65 248 c 0 161 -7 184 -49 162 c -18 -10 -21 -23 -23 -98 c -2 -58 -7 -88 -15 -91 c -10 -3 -13 19 -13 87 c 0 83 -2 91 -22 102 c -18 10 -24 8 -40 -11 c -14 -17 -18 -40 -18 -101 c 0 -46 -4 -79 -10 -79 c -6 0 -10 36 -10 88 c 0 86 -8 112 -36 112 c -6 0 -18 -7 -25 -17 z m 1629 -69 c 58 -40 89 -179 55 -243 c -10 -19 -35 -43 -55 -55 l -37 -21 l -36 35 c -65 63 -70 162 -13 242 c 46 63 52 66 86 42 z m -1450 -225 c 4 -35 -28 -62 -59 -50 c -33 12 -65 49 -53 61 c 8 8 76 18 99 15 c 6 -1 11 -13 13 -26 z m 639 -265 c -3 -3 -12 -4 -19 -1 c -8 3 -5 6 6 6 c 11 1 17 -2 13 -5 z m 126 -1 c -7 -2 -19 -2 -25 0 c -7 3 -2 5 12 5 c 14 0 19 -2 13 -5 z m -267 -43 c -21 -11 -44 -25 -52 -31 c -8 -7 -17 -9 -20 -6 c -3 3 5 11 18 18 c 60 32 74 39 83 39 c 6 -1 -7 -9 -29 -20 z m 369 -24 c 32 -14 79 -43 103 -63 c 53 -43 118 -139 133 -197 c 6 -23 16 -51 21 -63 c 6 -12 8 -33 6 -47 c -3 -15 -1 -26 6 -26 c 6 0 4 -5 -4 -10 c -8 -5 -36 -10 -61 -10 l -47 0 l -4 58 c -9 107 -79 207 -181 259 c -37 18 -70 26 -126 28 c -74 4 -74 4 -16 -4 c 88 -11 134 -29 191 -72 c 64 -49 113 -136 121 -214 l 6 -55 l -317 0 c -260 0 -318 2 -322 14 c -8 21 24 134 50 175 c 36 55 75 87 146 120 c 36 17 56 30 44 31 c -34 0 -121 -49 -160 -92 c -45 -50 -80 -127 -89 -195 l -7 -53 l -44 0 l -44 0 l 0 43 c 0 99 48 202 132 283 c 104 100 167 125 309 120 c 78 -2 106 -8 154 -30 z m -564 -149 c -10 -9 -11 -8 -5 6 c 3 10 9 15 12 12 c 3 -3 0 -11 -7 -18 z m 846 -159 c -3 -7 -5 -2 -5 12 c 0 14 2 19 5 13 c 2 -7 2 -19 0 -25 z" stroke-linecap="round"/>
</g>
		<g transform="matrix(0.2185 0 0 -0.2637 2.4133 -131.6552)">
<path style="stroke: none; stroke-width: 1; stroke-dasharray: none; stroke-linecap: butt; stroke-dashoffset: 0; stroke-linejoin: miter; stroke-miterlimit: 4; is-custom-font: none; font-file-url: none; fill: rgb(0,0,0); fill-rule: nonzero; opacity: 1;" transform=" translate(-3436.595, -4473.9497)" d="M 2870 4479 c -38 -4 -32 -6 40 -10 c 127 -8 1108 -4 1116 4 c 4 4 -37 7 -92 7 c -54 0 -306 1 -559 3 c -253 1 -480 -1 -505 -4 z" stroke-linecap="round"/>
</g>
		<g transform="matrix(0.2185 0 0 -0.2637 118.7642 171.8709)">
<path style="stroke: none; stroke-width: 1; stroke-dasharray: none; stroke-linecap: butt; stroke-dashoffset: 0; stroke-linejoin: miter; stroke-miterlimit: 4; is-custom-font: none; font-file-url: none; fill: rgb(0,0,0); fill-rule: nonzero; opacity: 1;" transform=" translate(-3969, -3322.9549)" d="M 2435 3597 c 9 -54 13 -57 34 -28 c 16 21 27 24 92 25 l 74 1 l 3 -269 c 2 -224 0 -273 -12 -292 c -15 -22 -15 -22 47 -26 c 34 -2 64 -3 66 -1 c 2 2 -2 15 -9 30 c -10 21 -14 98 -17 291 l -3 262 l 1102 0 c 607 0 1224 1 1372 2 c 269 2 269 2 287 -21 l 19 -23 l 10 27 c 5 14 10 35 10 45 c 0 18 -45 19 -1541 19 l -1541 1 l 7 -43 z" stroke-linecap="round"/>
</g>
		<g transform="matrix(0.2185 0 0 -0.2637 -243.8522 191.4716)">
<path style="stroke: none; stroke-width: 1; stroke-dasharray: none; stroke-linecap: butt; stroke-dashoffset: 0; stroke-linejoin: miter; stroke-miterlimit: 4; is-custom-font: none; font-file-url: none; fill: rgb(0,0,0); fill-rule: nonzero; opacity: 1;" transform=" translate(-2309.3753, -3248.6319)" d="M 2275 3475 c -50 -18 -74 -50 -75 -98 c 0 -34 7 -46 67 -105 c 92 -91 113 -120 113 -158 c 0 -64 -88 -97 -143 -54 c -33 26 -47 25 -47 -4 c 0 -53 120 -61 185 -12 c 39 30 62 89 51 133 c -5 16 -42 62 -92 110 c -67 66 -84 88 -84 111 c 0 61 80 85 122 37 c 16 -19 24 -22 30 -13 c 10 16 10 58 1 59 c -5 0 -26 2 -48 4 c -22 3 -58 -2 -80 -10 z" stroke-linecap="round"/>
</g>
		<g transform="matrix(0.2185 0 0 -0.2637 -86.6738 191.8322)">
<path style="stroke: none; stroke-width: 1; stroke-dasharray: none; stroke-linecap: butt; stroke-dashoffset: 0; stroke-linejoin: miter; stroke-miterlimit: 4; is-custom-font: none; font-file-url: none; fill: rgb(0,0,0); fill-rule: nonzero; opacity: 1;" transform=" translate(-3028.8897, -3247.2643)" d="M 2930 3484 c -13 -4 -15 -37 -12 -236 c 2 -128 4 -233 5 -234 c 1 -1 49 -4 107 -6 l 105 -3 l 3 28 l 3 27 l -36 -22 c -37 -21 -38 -21 -72 -3 c -19 11 -39 27 -44 38 c -7 11 -9 95 -7 213 c 3 212 3 213 -52 198 z" stroke-linecap="round"/>
</g>
		<g transform="matrix(0.2185 0 0 -0.2637 89.6749 192.0255)">
<path style="stroke: none; stroke-width: 1; stroke-dasharray: none; stroke-linecap: butt; stroke-dashoffset: 0; stroke-linejoin: miter; stroke-miterlimit: 4; is-custom-font: none; font-file-url: none; fill: rgb(0,0,0); fill-rule: nonzero; opacity: 1;" transform=" translate(-3836.1526, -3246.5313)" d="M 3712 3483 c -9 -4 -10 -8 -2 -18 c 7 -9 10 -86 8 -234 c -3 -215 -2 -221 17 -222 c 101 -4 162 2 185 19 c 39 29 51 61 47 120 c -3 41 -10 59 -32 82 l -27 29 l 19 33 c 43 70 32 171 -19 182 c -36 8 -181 15 -196 9 z m 161 -32 c 48 -19 61 -108 22 -147 c -20 -20 -33 -25 -68 -22 l -42 3 l -3 74 c -2 41 -1 80 2 88 c 6 15 53 17 89 4 z m 28 -227 c 25 -23 33 -72 20 -122 c -13 -46 -42 -72 -83 -72 c -48 0 -58 21 -58 125 l 0 94 l 51 -4 c 29 -2 59 -11 70 -21 z" stroke-linecap="round"/>
</g>
		<g transform="matrix(0.2185 0 0 -0.2637 150.3859 192.1326)">
<path style="stroke: none; stroke-width: 1; stroke-dasharray: none; stroke-linecap: butt; stroke-dashoffset: 0; stroke-linejoin: miter; stroke-miterlimit: 4; is-custom-font: none; font-file-url: none; fill: rgb(0,0,0); fill-rule: nonzero; opacity: 1;" transform=" translate(-4114.0714, -3246.125)" d="M 4003 3482 c -8 -5 -9 -13 -3 -22 c 13 -20 13 -391 1 -423 c -12 -31 -3 -33 129 -33 l 95 1 l 3 35 l 4 35 l -24 -22 c -40 -37 -71 -39 -109 -5 l -34 30 l 0 144 c 0 79 3 170 5 203 l 5 60 l -30 3 c -16 1 -35 -1 -42 -6 z" stroke-linecap="round"/>
</g>
		<g transform="matrix(0.2185 0 0 -0.2637 408.911 192.2954)">
<path style="stroke: none; stroke-width: 1; stroke-dasharray: none; stroke-linecap: butt; stroke-dashoffset: 0; stroke-linejoin: miter; stroke-miterlimit: 4; is-custom-font: none; font-file-url: none; fill: rgb(0,0,0); fill-rule: nonzero; opacity: 1;" transform=" translate(-5297.5, -3245.5077)" d="M 5120 3484 c -13 -4 -15 -39 -15 -239 l 0 -235 l 27 -5 c 28 -7 52 1 44 13 c -2 4 -7 46 -11 94 c -6 82 2 128 23 128 c 10 0 70 -57 158 -151 c 55 -59 80 -78 108 -83 c 24 -5 36 -3 36 5 c 0 6 -57 69 -127 140 l -127 130 l 97 96 c 54 52 96 97 95 99 c -2 1 -14 5 -29 9 c -22 5 -37 -6 -124 -94 c -54 -56 -103 -101 -107 -101 c -11 0 -10 118 1 157 c 11 38 -3 49 -49 37 z" stroke-linecap="round"/>
</g>
		<g transform="matrix(0.2185 0 0 -0.2637 -409.6394 192.3151)">
<path style="stroke: none; stroke-width: 1; stroke-dasharray: none; stroke-linecap: butt; stroke-dashoffset: 0; stroke-linejoin: miter; stroke-miterlimit: 4; is-custom-font: none; font-file-url: none; fill: rgb(0,0,0); fill-rule: nonzero; opacity: 1;" transform=" translate(-1550.4353, -3245.4331)" d="M 1487 3466 c -67 -24 -110 -70 -134 -143 c -14 -45 -15 -62 -5 -114 c 15 -82 47 -128 113 -164 c 46 -25 68 -30 145 -33 c 123 -6 169 17 148 72 c -5 13 -13 11 -49 -14 c -87 -60 -206 -23 -280 86 c -21 30 -25 49 -25 106 c 0 73 13 108 52 145 c 76 71 237 70 270 -2 c 11 -25 13 -26 25 -9 c 16 22 17 56 1 72 c -17 17 -212 15 -261 -2 z" stroke-linecap="round"/>
</g>
		<g transform="matrix(0.2185 0 0 -0.2637 -21.3326 194.1354)">
<path style="stroke: none; stroke-width: 1; stroke-dasharray: none; stroke-linecap: butt; stroke-dashoffset: 0; stroke-linejoin: miter; stroke-miterlimit: 4; is-custom-font: none; font-file-url: none; fill: rgb(0,0,0); fill-rule: nonzero; opacity: 1;" transform=" translate(-3328, -3238.5304)" d="M 3230 3473 c -13 -3 -15 -37 -15 -233 l 0 -229 l 50 -6 c 28 -4 77 -5 110 -3 c 57 3 60 4 63 31 l 3 27 l -40 -20 c -36 -20 -42 -20 -69 -6 c -40 21 -54 60 -50 142 l 3 69 l 35 1 c 19 1 45 -5 57 -12 c 33 -21 45 -17 41 12 c -3 26 -5 27 -68 28 l -65 1 l 0 85 l 0 85 l 49 3 c 34 2 53 -2 66 -13 c 17 -15 19 -15 24 2 c 3 10 5 23 3 28 c -2 9 -159 15 -197 8 z" stroke-linecap="round"/>
</g>
		<g transform="matrix(0.2185 0 0 -0.2637 313.2187 193.6478)">
<path style="stroke: none; stroke-width: 1; stroke-dasharray: none; stroke-linecap: butt; stroke-dashoffset: 0; stroke-linejoin: miter; stroke-miterlimit: 4; is-custom-font: none; font-file-url: none; fill: rgb(0,0,0); fill-rule: nonzero; opacity: 1;" transform=" translate(-4859.4475, -3240.3799)" d="M 4795 3468 c -83 -30 -134 -102 -142 -201 c -5 -54 -2 -71 21 -120 c 35 -72 71 -102 157 -128 c 133 -40 272 3 229 71 c -8 12 -12 11 -32 -7 c -64 -58 -128 -59 -214 -4 c -107 68 -142 182 -87 287 c 53 103 260 128 302 37 c 16 -36 33 -17 29 33 l -3 39 l -115 2 c -63 1 -128 -3 -145 -9 z" stroke-linecap="round"/>
</g>
		<g transform="matrix(0.2185 0 0 -0.2637 -315.8932 195.2971)">
<path style="stroke: none; stroke-width: 1; stroke-dasharray: none; stroke-linecap: butt; stroke-dashoffset: 0; stroke-linejoin: miter; stroke-miterlimit: 4; is-custom-font: none; font-file-url: none; fill: rgb(0,0,0); fill-rule: nonzero; opacity: 1;" transform=" translate(-1979.5812, -3234.1257)" d="M 1956 3459 c -3 -8 -42 -110 -86 -228 c -63 -166 -78 -216 -68 -223 c 27 -17 43 -3 49 42 c 4 25 16 66 28 93 l 20 47 l 65 0 l 65 0 l 21 -57 c 12 -32 24 -73 27 -90 c 5 -31 8 -33 44 -33 c 22 0 39 4 39 9 c 0 5 -12 35 -26 67 c -15 33 -55 128 -90 213 c -65 159 -79 185 -88 160 z m 33 -157 c 33 -83 30 -92 -26 -85 c -27 2 -49 6 -50 7 c -2 1 7 35 19 74 c 12 40 25 69 29 65 c 4 -5 17 -32 28 -61 z" stroke-linecap="round"/>
</g>
		<g transform="matrix(0.2185 0 0 -0.2637 235.4529 195.4853)">
<path style="stroke: none; stroke-width: 1; stroke-dasharray: none; stroke-linecap: butt; stroke-dashoffset: 0; stroke-linejoin: miter; stroke-miterlimit: 4; is-custom-font: none; font-file-url: none; fill: rgb(0,0,0); fill-rule: nonzero; opacity: 1;" transform=" translate(-4503.465, -3233.4119)" d="M 4472 3438 c -6 -18 -42 -116 -82 -218 c -94 -243 -88 -220 -51 -220 c 25 0 31 4 32 23 c 0 12 10 54 23 92 l 22 70 l 67 3 l 67 3 l 21 -48 c 11 -26 25 -67 32 -90 c 9 -36 15 -42 44 -48 c 50 -9 57 1 32 43 c -13 21 -57 122 -99 226 c -42 104 -81 191 -87 193 c -7 3 -16 -11 -21 -29 z m 48 -147 c 11 -35 18 -66 15 -69 c -6 -6 -87 -3 -93 3 c -4 3 27 126 35 138 c 9 15 20 -5 43 -72 z" stroke-linecap="round"/>
</g>
</g>
</g>
</svg>