<svg xmlns="http://www.w3.org/2000/svg" version="1.0" preserveAspectRatio="xMidYMid meet" viewBox="134.14 195 416.86 195.06">

<g transform="translate(0.000000,690.000000) scale(0.100000,-0.100000)" fill="#000000" stroke="none">
<path d="M2539 4933 c-11 -12 -14 -54 -14 -167 1 -168 9 -200 65 -233 l30 -17 0 -313 0 -313 -147 -1 c-90 0 -140 -4 -128 -9 29 -12 2222 -12 2230 0 4 6 -67 11 -192 12 l-198 3 -3 291 -2 291 45 41 c84 77 106 175 64 289 -25 65 -94 143 -127 143 -62 0 -113 -42 -153 -124 -59 -124 -46 -221 42 -300 30 -27 51 -54 51 -68 1 -13 1 -146 0 -295 l-2 -273 -100 0 c-85 0 -102 3 -107 17 -6 15 -7 15 -14 -3 -4 -10 -7 19 -6 66 2 78 -1 91 -31 152 -51 104 -170 223 -203 202 -7 -4 -9 -3 -6 3 4 6 -5 15 -19 22 -31 14 -37 14 -28 0 4 -8 -1 -9 -17 -4 -42 13 -57 26 -24 20 28 -5 28 -4 -5 8 -19 8 -61 17 -93 21 -47 5 -59 3 -63 -9 -5 -12 -10 -13 -20 -4 -8 6 -26 8 -45 4 -24 -6 -28 -9 -18 -17 10 -7 8 -8 -9 -5 -12 3 -20 2 -17 -3 3 -4 -10 -8 -28 -7 -34 1 -122 -47 -112 -62 2 -5 -2 -14 -10 -21 -13 -11 -14 -10 -9 6 7 19 7 19 -14 0 -24 -21 -29 -32 -10 -20 7 5 8 3 4 -5 -5 -7 -11 -10 -14 -7 -7 8 -42 -24 -42 -38 0 -6 5 -4 11 4 7 10 9 11 7 2 -2 -8 -8 -13 -13 -13 -17 0 -46 -32 -41 -45 3 -7 -6 -43 -19 -81 -14 -37 -25 -84 -25 -103 -1 -83 2 -81 -134 -78 l-121 3 -3 306 -2 306 35 24 c55 38 65 77 65 248 0 161 -7 184 -49 162 -18 -10 -21 -23 -23 -98 -2 -58 -7 -88 -15 -91 -10 -3 -13 19 -13 87 0 83 -2 91 -22 102 -18 10 -24 8 -40 -11 -14 -17 -18 -40 -18 -101 0 -46 -4 -79 -10 -79 -6 0 -10 36 -10 88 0 86 -8 112 -36 112 -6 0 -18 -7 -25 -17z m1629 -69 c58 -40 89 -179 55 -243 -10 -19 -35 -43 -55 -55 l-37 -21 -36 35 c-65 63 -70 162 -13 242 46 63 52 66 86 42z m-1450 -225 c4 -35 -28 -62 -59 -50 -33 12 -65 49 -53 61 8 8 76 18 99 15 6 -1 11 -13 13 -26z m639 -265 c-3 -3 -12 -4 -19 -1 -8 3 -5 6 6 6 11 1 17 -2 13 -5z m126 -1 c-7 -2 -19 -2 -25 0 -7 3 -2 5 12 5 14 0 19 -2 13 -5z m-267 -43 c-21 -11 -44 -25 -52 -31 -8 -7 -17 -9 -20 -6 -3 3 5 11 18 18 60 32 74 39 83 39 6 -1 -7 -9 -29 -20z m369 -24 c32 -14 79 -43 103 -63 53 -43 118 -139 133 -197 6 -23 16 -51 21 -63 6 -12 8 -33 6 -47 -3 -15 -1 -26 6 -26 6 0 4 -5 -4 -10 -8 -5 -36 -10 -61 -10 l-47 0 -4 58 c-9 107 -79 207 -181 259 -37 18 -70 26 -126 28 -74 4 -74 4 -16 -4 88 -11 134 -29 191 -72 64 -49 113 -136 121 -214 l6 -55 -317 0 c-260 0 -318 2 -322 14 -8 21 24 134 50 175 36 55 75 87 146 120 36 17 56 30 44 31 -34 0 -121 -49 -160 -92 -45 -50 -80 -127 -89 -195 l-7 -53 -44 0 -44 0 0 43 c0 99 48 202 132 283 104 100 167 125 309 120 78 -2 106 -8 154 -30z m-564 -149 c-10 -9 -11 -8 -5 6 3 10 9 15 12 12 3 -3 0 -11 -7 -18z m846 -159 c-3 -7 -5 -2 -5 12 0 14 2 19 5 13 2 -7 2 -19 0 -25z"/>
<path d="M2870 4479 c-38 -4 -32 -6 40 -10 127 -8 1108 -4 1116 4 4 4 -37 7 -92 7 -54 0 -306 1 -559 3 -253 1 -480 -1 -505 -4z"/>
<path d="M2435 3597 c9 -54 13 -57 34 -28 16 21 27 24 92 25 l74 1 3 -269 c2 -224 0 -273 -12 -292 -15 -22 -15 -22 47 -26 34 -2 64 -3 66 -1 2 2 -2 15 -9 30 -10 21 -14 98 -17 291 l-3 262 1102 0 c607 0 1224 1 1372 2 269 2 269 2 287 -21 l19 -23 10 27 c5 14 10 35 10 45 0 18 -45 19 -1541 19 l-1541 1 7 -43z"/>
<path d="M2275 3475 c-50 -18 -74 -50 -75 -98 0 -34 7 -46 67 -105 92 -91 113 -120 113 -158 0 -64 -88 -97 -143 -54 -33 26 -47 25 -47 -4 0 -53 120 -61 185 -12 39 30 62 89 51 133 -5 16 -42 62 -92 110 -67 66 -84 88 -84 111 0 61 80 85 122 37 16 -19 24 -22 30 -13 10 16 10 58 1 59 -5 0 -26 2 -48 4 -22 3 -58 -2 -80 -10z"/>
<path d="M2930 3484 c-13 -4 -15 -37 -12 -236 2 -128 4 -233 5 -234 1 -1 49 -4 107 -6 l105 -3 3 28 3 27 -36 -22 c-37 -21 -38 -21 -72 -3 -19 11 -39 27 -44 38 -7 11 -9 95 -7 213 3 212 3 213 -52 198z"/>
<path d="M3712 3483 c-9 -4 -10 -8 -2 -18 7 -9 10 -86 8 -234 -3 -215 -2 -221 17 -222 101 -4 162 2 185 19 39 29 51 61 47 120 -3 41 -10 59 -32 82 l-27 29 19 33 c43 70 32 171 -19 182 -36 8 -181 15 -196 9z m161 -32 c48 -19 61 -108 22 -147 -20 -20 -33 -25 -68 -22 l-42 3 -3 74 c-2 41 -1 80 2 88 6 15 53 17 89 4z m28 -227 c25 -23 33 -72 20 -122 -13 -46 -42 -72 -83 -72 -48 0 -58 21 -58 125 l0 94 51 -4 c29 -2 59 -11 70 -21z"/>
<path d="M4003 3482 c-8 -5 -9 -13 -3 -22 13 -20 13 -391 1 -423 -12 -31 -3 -33 129 -33 l95 1 3 35 4 35 -24 -22 c-40 -37 -71 -39 -109 -5 l-34 30 0 144 c0 79 3 170 5 203 l5 60 -30 3 c-16 1 -35 -1 -42 -6z"/>
<path d="M5120 3484 c-13 -4 -15 -39 -15 -239 l0 -235 27 -5 c28 -7 52 1 44 13 -2 4 -7 46 -11 94 -6 82 2 128 23 128 10 0 70 -57 158 -151 55 -59 80 -78 108 -83 24 -5 36 -3 36 5 0 6 -57 69 -127 140 l-127 130 97 96 c54 52 96 97 95 99 -2 1 -14 5 -29 9 -22 5 -37 -6 -124 -94 -54 -56 -103 -101 -107 -101 -11 0 -10 118 1 157 11 38 -3 49 -49 37z"/>
<path d="M1487 3466 c-67 -24 -110 -70 -134 -143 -14 -45 -15 -62 -5 -114 15 -82 47 -128 113 -164 46 -25 68 -30 145 -33 123 -6 169 17 148 72 -5 13 -13 11 -49 -14 -87 -60 -206 -23 -280 86 -21 30 -25 49 -25 106 0 73 13 108 52 145 76 71 237 70 270 -2 11 -25 13 -26 25 -9 16 22 17 56 1 72 -17 17 -212 15 -261 -2z"/>
<path d="M3230 3473 c-13 -3 -15 -37 -15 -233 l0 -229 50 -6 c28 -4 77 -5 110 -3 57 3 60 4 63 31 l3 27 -40 -20 c-36 -20 -42 -20 -69 -6 -40 21 -54 60 -50 142 l3 69 35 1 c19 1 45 -5 57 -12 33 -21 45 -17 41 12 -3 26 -5 27 -68 28 l-65 1 0 85 0 85 49 3 c34 2 53 -2 66 -13 17 -15 19 -15 24 2 3 10 5 23 3 28 -2 9 -159 15 -197 8z"/>
<path d="M4795 3468 c-83 -30 -134 -102 -142 -201 -5 -54 -2 -71 21 -120 35 -72 71 -102 157 -128 133 -40 272 3 229 71 -8 12 -12 11 -32 -7 -64 -58 -128 -59 -214 -4 -107 68 -142 182 -87 287 53 103 260 128 302 37 16 -36 33 -17 29 33 l-3 39 -115 2 c-63 1 -128 -3 -145 -9z"/>
<path d="M1956 3459 c-3 -8 -42 -110 -86 -228 -63 -166 -78 -216 -68 -223 27 -17 43 -3 49 42 4 25 16 66 28 93 l20 47 65 0 65 0 21 -57 c12 -32 24 -73 27 -90 5 -31 8 -33 44 -33 22 0 39 4 39 9 0 5 -12 35 -26 67 -15 33 -55 128 -90 213 -65 159 -79 185 -88 160z m33 -157 c33 -83 30 -92 -26 -85 -27 2 -49 6 -50 7 -2 1 7 35 19 74 12 40 25 69 29 65 4 -5 17 -32 28 -61z"/>
<path d="M4472 3438 c-6 -18 -42 -116 -82 -218 -94 -243 -88 -220 -51 -220 25 0 31 4 32 23 0 12 10 54 23 92 l22 70 67 3 67 3 21 -48 c11 -26 25 -67 32 -90 9 -36 15 -42 44 -48 50 -9 57 1 32 43 -13 21 -57 122 -99 226 -42 104 -81 191 -87 193 -7 3 -16 -11 -21 -29z m48 -147 c11 -35 18 -66 15 -69 -6 -6 -87 -3 -93 3 -4 3 27 126 35 138 9 15 20 -5 43 -72z"/>
</g>
</svg>